HIERARCHY
ROOT Hips
{
  OFFSET 5.72205e-005 65.662 3.42586
  CHANNELS 6 Xposition Yposition Zposition Zrotation Xrotation Yrotation
  JOINT Chest
  {
    OFFSET 0 8.7983 -4.7612
    CHANNELS 6 Xposition Yposition Zposition Zrotation Xrotation Yrotation
    JOINT Chest2
    {
      OFFSET 0 8.0291 0.4195
      CHANNELS 6 Xposition Yposition Zposition Zrotation Xrotation Yrotation
      JOINT Chest3
      {
        OFFSET 0 9.9351 -2.2114
        CHANNELS 6 Xposition Yposition Zposition Zrotation Xrotation Yrotation
        JOINT Neck
        {
          OFFSET 0 22.3885 -0.4656
          CHANNELS 6 Xposition Yposition Zposition Zrotation Xrotation Yrotation
          JOINT Head
          {
            OFFSET -0.0001 12.643 3.4389
            CHANNELS 6 Xposition Yposition Zposition Zrotation Xrotation Yrotation
            End Site
            {
              OFFSET 0.0001 17.6655 0.5274
            }
          }
        }
        JOINT LeftCollar
        {
          OFFSET 2.2603 21.606 7.4023
          CHANNELS 6 Xposition Yposition Zposition Zrotation Xrotation Yrotation
          JOINT LeftShoulder
          {
            OFFSET 13.5163 -1.1332 -5.0146
            CHANNELS 6 Xposition Yposition Zposition Zrotation Xrotation Yrotation
            JOINT LeftElbow
            {
              OFFSET -0.0995 -28.05 -0.2431
              CHANNELS 6 Xposition Yposition Zposition Zrotation Xrotation Yrotation
              JOINT LeftWrist
              {
                OFFSET 0.0679 -23.3996 -0.1402
                CHANNELS 6 Xposition Yposition Zposition Zrotation Xrotation Yrotation
                JOINT LeftFinger1
                {
                  OFFSET 0.7932 -9.069 2.5189
                  CHANNELS 6 Xposition Yposition Zposition Zrotation Xrotation Yrotation
                  JOINT LeftFinger11
                  {
                    OFFSET -0.8272 -3.3923 0.5977
                    CHANNELS 6 Xposition Yposition Zposition Zrotation Xrotation Yrotation
                    JOINT LeftFinger12
                    {
                      OFFSET -0.5649 -2.3158 0.4082
                      CHANNELS 6 Xposition Yposition Zposition Zrotation Xrotation Yrotation
                      End Site
                      {
                        OFFSET -0.4919 -1.6479 0.2673
                      }
                    }
                  }
                }
                JOINT LeftFinger2
                {
                  OFFSET 0.9159 -9.2044 0.2193
                  CHANNELS 6 Xposition Yposition Zposition Zrotation Xrotation Yrotation
                  JOINT LeftFinger21
                  {
                    OFFSET 0.0117 -4.1944 -0.0248
                    CHANNELS 6 Xposition Yposition Zposition Zrotation Xrotation Yrotation
                    JOINT LeftFinger22
                    {
                      OFFSET 0.0071 -2.3249 -0.0142
                      CHANNELS 6 Xposition Yposition Zposition Zrotation Xrotation Yrotation
                      End Site
                      {
                        OFFSET -0.1475 -2.0882 0.0028
                      }
                    }
                  }
                }
                JOINT LeftFinger3
                {
                  OFFSET 0.6113 -8.7231 -2.0637
                  CHANNELS 6 Xposition Yposition Zposition Zrotation Xrotation Yrotation
                  JOINT LeftFinger31
                  {
                    OFFSET -0.1927 -3.8059 -0.2383
                    CHANNELS 6 Xposition Yposition Zposition Zrotation Xrotation Yrotation
                    JOINT LeftFinger32
                    {
                      OFFSET -0.1091 -2.1688 -0.1362
                      CHANNELS 6 Xposition Yposition Zposition Zrotation Xrotation Yrotation
                      End Site
                      {
                        OFFSET -0.2358 -1.9176 -0.0906
                      }
                    }
                  }
                }
                JOINT LeftFinger4
                {
                  OFFSET -0.6151 -8.0947 -3.5641
                  CHANNELS 6 Xposition Yposition Zposition Zrotation Xrotation Yrotation
                  JOINT LeftFinger41
                  {
                    OFFSET -0.4882 -2.341 -0.6462
                    CHANNELS 6 Xposition Yposition Zposition Zrotation Xrotation Yrotation
                    JOINT LeftFinger42
                    {
                      OFFSET -0.3575 -1.7167 -0.4742
                      CHANNELS 6 Xposition Yposition Zposition Zrotation Xrotation Yrotation
                      End Site
                      {
                        OFFSET -0.4187 -1.5237 -0.3496
                      }
                    }
                  }
                }
                JOINT LeftFinger0
                {
                  OFFSET -1.42 -1.8761 1.4223
                  CHANNELS 6 Xposition Yposition Zposition Zrotation Xrotation Yrotation
                  JOINT LeftFinger01
                  {
                    OFFSET -1.1471 -3.4929 2.6334
                    CHANNELS 6 Xposition Yposition Zposition Zrotation Xrotation Yrotation
                    JOINT LeftFinger02
                    {
                      OFFSET -0.823 -2.3 1.6571
                      CHANNELS 6 Xposition Yposition Zposition Zrotation Xrotation Yrotation
                      End Site
                      {
                        OFFSET -0.5822 -1.6914 1.1582
                      }
                    }
                  }
                }
              }
            }
          }
        }
        JOINT RightCollar
        {
          OFFSET -2.2603 21.606 7.4023
          CHANNELS 6 Xposition Yposition Zposition Zrotation Xrotation Yrotation
          JOINT RightShoulder
          {
            OFFSET -13.5187 -1.1334 -5.0155
            CHANNELS 6 Xposition Yposition Zposition Zrotation Xrotation Yrotation
            JOINT RightElbow
            {
              OFFSET 0.0994 -28.0499 -0.2431
              CHANNELS 6 Xposition Yposition Zposition Zrotation Xrotation Yrotation
              JOINT RightWrist
              {
                OFFSET -0.0679 -23.3996 -0.1402
                CHANNELS 6 Xposition Yposition Zposition Zrotation Xrotation Yrotation
                JOINT RightFinger1
                {
                  OFFSET -0.7932 -9.0691 2.5189
                  CHANNELS 6 Xposition Yposition Zposition Zrotation Xrotation Yrotation
                  JOINT RightFinger11
                  {
                    OFFSET 0.8272 -3.3923 0.5977
                    CHANNELS 6 Xposition Yposition Zposition Zrotation Xrotation Yrotation
                    JOINT RightFinger12
                    {
                      OFFSET 0.565 -2.3158 0.4082
                      CHANNELS 6 Xposition Yposition Zposition Zrotation Xrotation Yrotation
                      End Site
                      {
                        OFFSET 0.4919 -1.6479 0.2673
                      }
                    }
                  }
                }
                JOINT RightFinger2
                {
                  OFFSET -0.916 -9.2044 0.2193
                  CHANNELS 6 Xposition Yposition Zposition Zrotation Xrotation Yrotation
                  JOINT RightFinger21
                  {
                    OFFSET -0.0117 -4.1944 -0.0248
                    CHANNELS 6 Xposition Yposition Zposition Zrotation Xrotation Yrotation
                    JOINT RightFinger22
                    {
                      OFFSET -0.0071 -2.3249 -0.0142
                      CHANNELS 6 Xposition Yposition Zposition Zrotation Xrotation Yrotation
                      End Site
                      {
                        OFFSET 0.1475 -2.0882 0.0028
                      }
                    }
                  }
                }
                JOINT RightFinger3
                {
                  OFFSET -0.6113 -8.7231 -2.0637
                  CHANNELS 6 Xposition Yposition Zposition Zrotation Xrotation Yrotation
                  JOINT RightFinger31
                  {
                    OFFSET 0.1927 -3.8059 -0.2383
                    CHANNELS 6 Xposition Yposition Zposition Zrotation Xrotation Yrotation
                    JOINT RightFinger32
                    {
                      OFFSET 0.1091 -2.1688 -0.1362
                      CHANNELS 6 Xposition Yposition Zposition Zrotation Xrotation Yrotation
                      End Site
                      {
                        OFFSET 0.2358 -1.9176 -0.0906
                      }
                    }
                  }
                }
                JOINT RightFinger4
                {
                  OFFSET 0.6151 -8.0947 -3.564
                  CHANNELS 6 Xposition Yposition Zposition Zrotation Xrotation Yrotation
                  JOINT RightFinger41
                  {
                    OFFSET 0.4882 -2.341 -0.6462
                    CHANNELS 6 Xposition Yposition Zposition Zrotation Xrotation Yrotation
                    JOINT RightFinger42
                    {
                      OFFSET 0.3574 -1.7166 -0.4742
                      CHANNELS 6 Xposition Yposition Zposition Zrotation Xrotation Yrotation
                      End Site
                      {
                        OFFSET 0.4187 -1.5237 -0.3496
                      }
                    }
                  }
                }
                JOINT RightFinger0
                {
                  OFFSET 1.4199 -1.8761 1.4221
                  CHANNELS 6 Xposition Yposition Zposition Zrotation Xrotation Yrotation
                  JOINT RightFinger01
                  {
                    OFFSET 1.1472 -3.4929 2.6336
                    CHANNELS 6 Xposition Yposition Zposition Zrotation Xrotation Yrotation
                    JOINT RightFinger02
                    {
                      OFFSET 0.8229 -2.3 1.6571
                      CHANNELS 6 Xposition Yposition Zposition Zrotation Xrotation Yrotation
                      End Site
                      {
                        OFFSET 0.5822 -1.6914 1.1582
                      }
                    }
                  }
                }
              }
            }
          }
        }
      }
    }
  }
  JOINT RightHip
  {
    OFFSET -9.412 3.9771 -0.7758
    CHANNELS 6 Xposition Yposition Zposition Zrotation Xrotation Yrotation
    JOINT RightKnee
    {
      OFFSET -0.7531 -40.938 0
      CHANNELS 6 Xposition Yposition Zposition Zrotation Xrotation Yrotation
      JOINT RightAnkle
      {
        OFFSET 0 -40.1986 0
        CHANNELS 6 Xposition Yposition Zposition Zrotation Xrotation Yrotation
        JOINT RightToe
        {
          OFFSET 0 -4.4182 9.239
          CHANNELS 6 Xposition Yposition Zposition Zrotation Xrotation Yrotation
          End Site
          {
            OFFSET 0 0 6.1981
          }
        }
      }
    }
  }
  JOINT LeftHip
  {
    OFFSET 9.4119 3.9773 -0.7758
    CHANNELS 6 Xposition Yposition Zposition Zrotation Xrotation Yrotation
    JOINT LeftKnee
    {
      OFFSET 0.7532 -40.9383 0
      CHANNELS 6 Xposition Yposition Zposition Zrotation Xrotation Yrotation
      JOINT LeftAnkle
      {
        OFFSET 0 -40.1986 0
        CHANNELS 6 Xposition Yposition Zposition Zrotation Xrotation Yrotation
        JOINT LeftToe
        {
          OFFSET 0 -4.4182 9.239
          CHANNELS 6 Xposition Yposition Zposition Zrotation Xrotation Yrotation
          End Site
          {
            OFFSET 0 0 6.1981
          }
        }
      }
    }
  }
}
MOTION
Frames:	4
Frame Time:	0.0333333
5.72205e-005 65.662 3.42586 0 0 -0 0 8.7983 -4.7612 0 0 -0 0 8.0291 0.4195 0 0 -0 0 9.9351 -2.2114 0 0 -0 0 22.3885 -0.4656 0 0 -0 -0.0001 12.643 3.4389 0 0 -0 2.2603 21.606 7.4023 0 0 -12.5014 13.5163 -1.1332 -5.0146 88.1196 14.2451 10.6914 -0.0995 -28.05 -0.2431 -0.00160068 -0.00239207 0.000740045 0.0679 -23.3996 -0.1402 -8.4365e-005 7.00714e-005 -9.52055e-007 0.7932 -9.069 2.5189 9.93923e-017 -1.98785e-016 -1.59028e-015 -0.8272 -3.3923 0.5977 9.93923e-017 -5.96354e-016 -1.59028e-015 -0.5649 -2.3158 0.4082 -9.93923e-017 -5.96354e-016 -1.59028e-015 0.9159 -9.2044 0.2193 9.93923e-017 -1.98785e-016 -1.59028e-015 0.0117 -4.1944 -0.0248 -0.0128176 0.00232552 8.52707e-005 0.0071 -2.3249 -0.0142 9.93923e-017 5.96354e-016 -0 0.6113 -8.7231 -2.0637 9.93923e-017 -1.98785e-016 -1.59028e-015 -0.1927 -3.8059 -0.2383 -0.0160551 0.00299681 0.000857156 -0.1091 -2.1688 -0.1362 -2.48481e-016 0 3.18055e-015 -0.6151 -8.0947 -3.5641 9.93923e-017 -1.98785e-016 -1.59028e-015 -0.4882 -2.341 -0.6462 -0.0125865 0.0031206 0.00282719 -0.3575 -1.7167 -0.4742 0 1.98785e-016 -0 -1.42 -1.8761 1.4223 9.93923e-017 -1.98785e-016 -1.59028e-015 -1.1471 -3.4929 2.6334 9.93923e-017 -5.96354e-016 -1.59028e-015 -0.823 -2.3 1.6571 -9.93923e-017 -5.96354e-016 -1.59028e-015 -2.2603 21.606 7.4023 -0.865644 0.16582 7.03859 -13.5187 -1.1334 -5.0155 -88.0329 10.2057 -10.5567 0.0994 -28.0499 -0.2431 0.0015593 -0.00248883 -0.000788628 -0.0679 -23.3996 -0.1402 7.87605e-005 4.10553e-005 1.24965e-005 -0.7932 -9.0691 2.5189 -3.97569e-016 -7.95139e-016 3.18055e-015 0.8272 -3.3923 0.5977 -1.98785e-016 -3.97569e-016 3.18055e-015 0.565 -2.3158 0.4082 -1.98785e-016 0 3.18055e-015 -0.916 -9.2044 0.2193 -3.97569e-016 -7.95139e-016 3.18055e-015 -0.0117 -4.1944 -0.0248 0.0129473 0.00231697 -8.70038e-005 -0.0071 -2.3249 -0.0142 9.93923e-017 -7.95139e-016 1.59028e-015 -0.6113 -8.7231 -2.0637 -3.97569e-016 -7.95139e-016 3.18055e-015 0.1927 -3.8059 -0.2383 0.0163314 0.00303369 -0.000872333 0.1091 -2.1688 -0.1362 3.97569e-016 7.95139e-016 -3.18055e-015 0.6151 -8.0947 -3.564 -3.97569e-016 -7.95139e-016 3.18055e-015 0.4882 -2.341 -0.6462 0.0145763 0.00367772 -0.00326275 0.3574 -1.7166 -0.4742 9.93923e-017 -3.97569e-016 -0 1.4199 -1.8761 1.4221 -3.97569e-016 -7.95139e-016 3.18055e-015 1.1472 -3.4929 2.6336 -1.98785e-016 -3.97569e-016 3.18055e-015 0.8229 -2.3 1.6571 -1.98785e-016 0 3.18055e-015 -9.412 3.9771 -0.7758 3.42482 1.32465 -0.0626183 -0.7531 -40.938 0 0.000117508 0.717283 0.000978199 0 -40.1986 0 -3.4257 -2.04197 -0.0604716 8.88178e-016 -4.4182 9.239 6.47761e-025 0 -0 9.4119 3.9773 -0.7758 -3.42483 1.34017 0.0627307 0.7532 -40.9383 -2.22045e-016 -0.000193936 0.682302 -0.0013703 -8.88179e-016 -40.1986 0 3.42574 -2.02253 0.0595886 -8.88178e-016 -4.4182 9.239 -8.45714e-024 0 -7.40531e-025 
-0.712309 58.5815 0.771651 1.12422e-006 9.05308 4.78878e-008 -1.11022e-016 8.7983 -4.7612 -0.671425 -1.28914 -0.251294 -2.22045e-016 8.0291 0.4195 -1.34902 -2.57523 -0.517884 4.44089e-016 9.9351 -2.2114 -1.34902 -2.57523 -0.517884 -8.88178e-016 22.3885 -0.4656 0.132163 0.178095 -0.00154624 -0.0001 12.643 3.4389 1.33839e-007 0.211627 -2.65732e-007 2.2603 21.606 7.4023 3.62063 10.6429 -16.2958 13.5163 -1.1332 -5.0146 34.1498 -7.17038 21.8053 -0.0995 -28.05 -0.2431 -80.7151 -46.4736 -58.5187 0.0679 -23.3996 -0.1402 -6.81315 11.2201 -1.45232 0.7932 -9.069 2.5189 -8.82781e-032 1.59028e-015 3.18055e-015 -0.8272 -3.3923 0.5977 1.76556e-031 1.59028e-015 -6.36111e-015 -0.5649 -2.3158 0.4082 0 0 -6.36111e-015 0.9159 -9.2044 0.2193 -8.82781e-032 1.59028e-015 3.18055e-015 0.0117 -4.1944 -0.0248 -0.0128029 0.00230937 8.39534e-005 0.0071 -2.3249 -0.0142 9.54166e-015 -3.18055e-015 -0 0.6113 -8.7231 -2.0637 -8.82781e-032 1.59028e-015 3.18055e-015 -0.1927 -3.8059 -0.2383 -0.0160271 0.00298204 0.000860006 -0.1091 -2.1688 -0.1362 3.18055e-015 0 6.36111e-015 -0.6151 -8.0947 -3.5641 -8.82781e-032 1.59028e-015 3.18055e-015 -0.4882 -2.341 -0.6462 -0.0126094 0.00312357 0.0028254 -0.3575 -1.7167 -0.4742 6.36111e-015 4.77083e-015 6.36111e-015 -1.42 -1.8761 1.4223 -8.82781e-032 1.59028e-015 3.18055e-015 -1.1471 -3.4929 2.6334 1.76556e-031 1.59028e-015 -6.36111e-015 -0.823 -2.3 1.6571 0 0 -6.36111e-015 -2.2603 21.606 7.4023 -4.85364 10.3654 10.4779 -13.5187 -1.1334 -5.0155 -33.5428 -9.03048 -17.4656 0.0994 -28.0499 -0.2431 79.3582 -47.0139 57.7105 -0.0679 -23.3996 -0.1402 8.61995 10.5506 1.9992 -0.7932 -9.0691 2.5189 -9.54525e-007 -2.26149e-006 1.04021e-006 0.8272 -3.3923 0.5977 3.18055e-015 1.59028e-014 3.18055e-015 0.565 -2.3158 0.4082 -3.94123e-006 7.64883e-006 8.50609e-006 -0.916 -9.2044 0.2193 -9.54525e-007 -2.26149e-006 1.04021e-006 -0.0117 -4.1944 -0.0248 0.0129933 0.00233825 -9.39025e-005 -0.0071 -2.3249 -0.0142 2.74191e-006 2.32025e-006 4.14916e-006 -0.6113 -8.7231 -2.0637 -9.54525e-007 -2.26149e-006 1.04021e-006 0.1927 -3.8059 -0.2383 0.0163445 0.0030488 -0.000877343 0.1091 -2.1688 -0.1362 -2.17982e-006 3.587e-006 2.59877e-006 0.6151 -8.0947 -3.564 -9.54525e-007 -2.26149e-006 1.04021e-006 0.4882 -2.341 -0.6462 0.0145901 0.00367595 -0.00326747 0.3574 -1.7166 -0.4742 1.65203e-006 7.10774e-006 5.44834e-006 1.4199 -1.8761 1.4221 -9.54525e-007 -2.26149e-006 1.04021e-006 1.1472 -3.4929 2.6336 3.18055e-015 1.59028e-014 3.18055e-015 0.8229 -2.3 1.6571 -3.94123e-006 7.64883e-006 8.50609e-006 -9.412 3.9771 -0.7758 -29.2996 -37.2622 -37.9906 -0.7531 -40.938 -7.10543e-015 -153.173 36.0189 151.588 0 -40.1986 0 10.0821 19.7505 15.3104 3.55271e-015 -4.4182 9.239 3.11309e-006 -2.12685e-006 3.98878e-006 9.4119 3.9773 -0.7758 25.62 -35.1836 36.2783 0.7532 -40.9383 0 153.429 35.7 -151.796 -7.10543e-015 -40.1986 0 -8.00113 20.1571 -14.8834 0 -4.4182 9.239 -7.49317e-006 1.55335e-005 -4.98137e-006 
-0.669445 59.061 1.73667 -2.37511e-007 6.67428 -3.52456e-007 0 8.7983 -4.7612 -0.631121 -0.595223 -0.240817 2.22045e-016 8.0291 0.4195 -1.26485 -1.18776 -0.488217 -4.44089e-016 9.9351 -2.2114 -1.26485 -1.18776 -0.488217 -8.88179e-016 22.3885 -0.4656 0.179009 0.240575 -0.00665708 -0.0001 12.643 3.4389 1.19957e-007 0.286269 4.38814e-007 2.2603 21.606 7.4023 3.6375 8.67309 -16.4115 13.5163 -1.1332 -5.0146 37.1543 -5.67762 21.318 -0.0995 -28.05 -0.2431 -75.6181 -43.2493 -54.9606 0.0679 -23.3996 -0.1402 -6.51544 10.1219 -0.937511 0.7932 -9.069 2.5189 1.76556e-031 -3.18055e-015 3.18055e-015 -0.8272 -3.3923 0.5977 -2.17585e-006 -6.35733e-007 2.62833e-006 -0.5649 -2.3158 0.4082 -1.29394e-005 -2.01566e-005 -1.53266e-005 0.9159 -9.2044 0.2193 1.76556e-031 -3.18055e-015 3.18055e-015 0.0117 -4.1944 -0.0248 -0.0128253 0.00230579 7.13344e-005 0.0071 -2.3249 -0.0142 -8.04046e-007 2.90016e-006 -2.74761e-006 0.6113 -8.7231 -2.0637 1.76556e-031 -3.18055e-015 3.18055e-015 -0.1927 -3.8059 -0.2383 -0.0160235 0.00297694 0.000851021 -0.1091 -2.1688 -0.1362 -1.08801e-006 1.16324e-006 1.31411e-006 -0.6151 -8.0947 -3.5641 1.76556e-031 -3.18055e-015 3.18055e-015 -0.4882 -2.341 -0.6462 -0.0126451 0.00312163 0.00282926 -0.3575 -1.7167 -0.4742 -3.18055e-015 3.18055e-015 -3.18055e-015 -1.42 -1.8761 1.4223 1.76556e-031 -3.18055e-015 3.18055e-015 -1.1471 -3.4929 2.6334 -2.17585e-006 -6.35733e-007 2.62833e-006 -0.823 -2.3 1.6571 -1.29394e-005 -2.01566e-005 -1.53266e-005 -2.2603 21.606 7.4023 -4.84033 8.43275 10.6349 -13.5187 -1.1334 -5.0155 -36.6653 -7.76602 -17.1563 0.0994 -28.0499 -0.2431 74.3029 -43.804 54.246 -0.0679 -23.3996 -0.1402 8.13709 9.53636 1.45549 -0.7932 -9.0691 2.5189 3.18055e-015 1.27222e-014 3.18055e-015 0.8272 -3.3923 0.5977 -3.18055e-015 3.18055e-015 3.18055e-015 0.565 -2.3158 0.4082 -1.93552e-006 1.08051e-007 -1.50916e-006 -0.916 -9.2044 0.2193 3.18055e-015 1.27222e-014 3.18055e-015 -0.0117 -4.1944 -0.0248 0.0129692 0.00233552 -8.87304e-005 -0.0071 -2.3249 -0.0142 -1.93492e-006 9.46307e-007 -1.50924e-006 -0.6113 -8.7231 -2.0637 3.18055e-015 1.27222e-014 3.18055e-015 0.1927 -3.8059 -0.2383 0.0163393 0.00301782 -0.000859024 0.1091 -2.1688 -0.1362 -6.36111e-015 3.18055e-015 -0 0.6151 -8.0947 -3.564 3.18055e-015 1.27222e-014 3.18055e-015 0.4882 -2.341 -0.6462 0.0145862 0.00366712 -0.00325036 0.3574 -1.7166 -0.4742 3.18055e-015 6.36111e-015 6.36111e-015 1.4199 -1.8761 1.4221 3.18055e-015 1.27222e-014 3.18055e-015 1.1472 -3.4929 2.6336 -3.18055e-015 3.18055e-015 3.18055e-015 0.8229 -2.3 1.6571 -1.93552e-006 1.08051e-007 -1.50916e-006 -9.412 3.9771 -0.7758 -25.8985 -33.2011 -34.5204 -0.7531 -40.938 7.10543e-015 -148.705 43.9877 149.695 0 -40.1986 3.55271e-015 9.21001 18.645 14.3075 0 -4.4182 9.239 -7.32342e-007 -7.68348e-007 -2.22788e-006 9.4119 3.9773 -0.7758 22.5976 -31.1935 33.1259 0.7532 -40.9383 0 148.968 43.7139 -149.915 -3.55271e-015 -40.1986 0 -7.35543 19.0718 -13.8345 0 -4.4182 9.239 -1.00012e-006 -9.63455e-006 -4.18998e-007 
-0.669157 59.1617 2.48247 -4.35126e-009 4.92654 5.06678e-008 0 8.7983 -4.7612 -0.634953 -0.00125206 -0.235493 2.22045e-016 8.0291 0.4195 -1.26991 9.31325e-005 -0.470985 0 9.9351 -2.2114 -1.26991 9.14293e-005 -0.470988 -8.88179e-016 22.3885 -0.4656 0.231249 0.309925 -0.0113969 -0.0001 12.643 3.4389 -1.36029e-008 0.368524 -3.8777e-007 2.2603 21.606 7.4023 3.88475 7.39888 -16.7313 13.5163 -1.1332 -5.0146 37.1539 -5.67738 21.3179 -0.0995 -28.05 -0.2431 -74.6115 -43.2074 -54.2218 0.0679 -23.3996 -0.1402 -6.60776 9.7076 -0.537934 0.7932 -9.069 2.5189 6.09902e-006 -3.93305e-006 -1.05296e-007 -0.8272 -3.3923 0.5977 3.18055e-015 0 -6.36111e-015 -0.5649 -2.3158 0.4082 -3.18055e-015 3.18055e-015 -0 0.9159 -9.2044 0.2193 6.09902e-006 -3.93305e-006 -1.05296e-007 0.0117 -4.1944 -0.0248 -0.0128191 0.00232372 9.01862e-005 0.0071 -2.3249 -0.0142 -5.46215e-006 -3.99242e-007 -4.93019e-006 0.6113 -8.7231 -2.0637 6.09902e-006 -3.93305e-006 -1.05296e-007 -0.1927 -3.8059 -0.2383 -0.0160373 0.00298828 0.000848847 -0.1091 -2.1688 -0.1362 7.93445e-007 -2.89686e-006 2.75972e-006 -0.6151 -8.0947 -3.5641 6.09902e-006 -3.93305e-006 -1.05296e-007 -0.4882 -2.341 -0.6462 -0.0126068 0.0031298 0.00283295 -0.3575 -1.7167 -0.4742 5.94224e-006 1.79396e-005 4.46816e-006 -1.42 -1.8761 1.4223 6.09902e-006 -3.93305e-006 -1.05296e-007 -1.1471 -3.4929 2.6334 3.18055e-015 0 -6.36111e-015 -0.823 -2.3 1.6571 -3.18055e-015 3.18055e-015 -0 -2.2603 21.606 7.4023 -5.07242 7.16957 10.974 -13.5187 -1.1334 -5.0155 -36.6653 -7.76598 -17.1563 0.0994 -28.0499 -0.2431 73.3433 -43.7499 53.5385 -0.0679 -23.3996 -0.1402 8.15315 9.16547 1.05517 -0.7932 -9.0691 2.5189 6.36111e-015 9.54166e-015 -0 0.8272 -3.3923 0.5977 -1.82432e-006 3.64586e-006 1.76319e-006 0.565 -2.3158 0.4082 3.18055e-015 9.54166e-015 -9.54166e-015 -0.916 -9.2044 0.2193 6.36111e-015 9.54166e-015 -0 -0.0117 -4.1944 -0.0248 0.0129499 0.00234345 -9.79695e-005 -0.0071 -2.3249 -0.0142 1.76556e-031 -3.18055e-015 3.18055e-015 -0.6113 -8.7231 -2.0637 6.36111e-015 9.54166e-015 -0 0.1927 -3.8059 -0.2383 0.0163596 0.00305336 -0.000868982 0.1091 -2.1688 -0.1362 3.53113e-031 6.36111e-015 -3.18055e-015 0.6151 -8.0947 -3.564 6.36111e-015 9.54166e-015 -0 0.4882 -2.341 -0.6462 0.0145632 0.00367973 -0.0032528 0.3574 -1.7166 -0.4742 -7.13717e-007 -6.64128e-007 -2.70165e-006 1.4199 -1.8761 1.4221 6.36111e-015 9.54166e-015 -0 1.1472 -3.4929 2.6336 -1.82432e-006 3.64586e-006 1.76319e-006 0.8229 -2.3 1.6571 3.18055e-015 9.54166e-015 -9.54166e-015 -9.412 3.9771 -0.7758 -26.155 -30.5941 -34.1557 -0.7531 -40.938 -7.10543e-015 -148.058 44.5861 149.312 -3.55271e-015 -40.1986 0 8.44859 18.5821 14.6651 0 -4.4182 9.239 -1.44624e-006 -1.84779e-006 -2.48421e-006 9.4119 3.9773 -0.7758 22.8766 -28.5761 32.8129 0.7532 -40.9383 0 148.304 44.3368 -149.523 -3.55271e-015 -40.1986 7.10543e-015 -6.66425 19.0216 -14.1431 0 -4.4182 9.239 -3.18055e-015 -3.28771e-007 -0 
